<?xml version="1.0" encoding="utf-8"?>
<!-- Svg Vector Icons : http://www.onlinewebfonts.com/icon -->
<!DOCTYPE svg PUBLIC "-//W3C//DTD SVG 1.1//EN" "http://www.w3.org/Graphics/SVG/1.1/DTD/svg11.dtd">
<svg version="1.1" xmlns="http://www.w3.org/2000/svg" xmlns:xlink="http://www.w3.org/1999/xlink" x="0px" y="0px" viewBox="0 0 256 256" enable-background="new 0 0 256 256" xml:space="preserve">
<metadata> Svg Vector Icons : http://www.onlinewebfonts.com/icon </metadata>
<g><g><g><path fill="#000000" d="M29.5,11.3c-0.7,0.7-1.3,1.6-1.3,2.1c0,0.5,2.9,26.2,6.4,57.1c4.5,39.8,6.5,58.6,6.7,64.6l0.3,8.4l6.4,15.9l6.3,15.9l-1.1,16.6c-0.6,9.2-1,17.1-0.8,17.7c0.2,0.6,3.3,3.8,7,7.2c3.7,3.4,12.4,11.3,19.4,17.6L91.4,246h36.5h36.5l18.8-17c10.3-9.4,19.2-17.6,19.7-18.3c1-1.2,1-1.5-0.1-18.3l-1.1-17l6.4-15.9l6.4-15.9l0.2-6.6c0.1-4.2,2.5-28.1,6.7-65.3l6.6-58.6l-1.1-1.4c-1.2-1.6-4.4-2.1-5.8-1c-0.5,0.4-4.7,8.6-9.3,18.5c-4.7,9.8-8.6,18-8.8,18.2c-0.2,0.2-1.7-1.4-3.4-3.6c-9.4-12.7-24.2-23.1-39.4-28c-9.9-3.2-12.2-3.4-32-3.4c-20.1,0-22.1,0.2-32.4,3.6C79.5,21.1,65.2,31.4,56,44.5c-1.4,2-2.7,3.7-2.8,3.7c-0.2,0-5-10.3-14.1-30c-1.5-3.2-3.1-6.4-3.7-7C34,9.6,31.1,9.6,29.5,11.3z M148.5,21.5c20.6,3.6,38.1,15.9,48.6,34.3c1.2,2.1,2.5,4.2,2.9,4.7c0.9,1.1,4.1,1.2,5.3,0.3c0.5-0.3,3-5.1,5.6-10.7c2.6-5.6,5-10.3,5.1-10.4c0.2-0.2,0.2,0.5,0,1.4c-0.2,1-2.4,20.5-4.9,43.5c-2.5,22.9-4.7,41.9-4.9,42c-1.1,1.1-48,32-48.4,32c-0.3,0-4-1.7-8.1-3.8c-4.2-2.1-8.1-3.8-8.8-3.8c-1.5,0-2.5,0.7-9.2,6.5c-3,2.6-5.7,4.7-6,4.7c-0.3,0-3.3-2.3-6.6-5.2c-3.4-2.8-6.7-5.4-7.4-5.7c-1-0.4-3.1,0.1-10.7,2.6l-9.4,3.1l-21-15c-18.4-13.2-21-15.2-21.4-16.6c-0.4-1.7-9.5-82-9.5-83.9c0-0.6,2.1,3.4,4.6,8.8c2.5,5.4,5.1,10.3,5.6,10.8c1.2,1.1,3.9,1.2,5.1,0.3c0.4-0.3,2-2.7,3.4-5.3c11.6-20.5,31.8-33.5,55-35.2C122.5,20.1,142.9,20.5,148.5,21.5z M206.1,139.6c-0.2,1.4-2.9,9.1-6.7,18.5l-6.4,16.1l1,14.4c0.5,8,1,15.3,1,16.3c0,1.7-0.7,2.5-15.9,16.3c-8.7,8-16.5,15-17.4,15.6l-1.5,1.2h-32.4H95.5l-1.7-1.4c-1.4-1.2-28.5-25.7-31.9-28.9l-1.2-1.1l1.1-16.2l1.1-16.2l-6.6-16.5c-5.8-14.5-7.5-19.8-6.3-19.8c0.2,0,9.1,6.2,19.7,13.8c10.6,7.6,20,13.9,20.7,14c0.8,0.1,5.1-1,10.1-2.6c4.8-1.6,9-2.8,9.3-2.6c0.3,0.1,3.5,2.7,7.2,5.8c3.6,3.2,7.1,5.8,7.7,6c2.1,0.6,3.4-0.2,9.9-5.9c3.6-3.1,6.8-5.6,7.1-5.6c0.3,0,4.1,1.7,8.4,3.9c6.8,3.3,8,3.8,9.3,3.4c0.8-0.3,11.5-7.3,24-15.6c12.4-8.3,22.7-15.1,22.8-15.1C206.3,137.2,206.2,138.2,206.1,139.6z"/><path fill="#000000" d="M69.6,112.2c-0.6,0.3-1.3,0.9-1.6,1.5c-0.7,1.2-0.7,3.6-0.2,4.4c0.2,0.3,6.1,5.7,13,12.1c11.7,10.6,12.8,11.5,14.5,11.5c1.7,0,2.7-0.8,10-6.9c4.4-3.8,8.4-7.3,8.7-7.7c0.7-1,0.8-3.4,0.1-4.6c-0.3-0.5-1.1-1.2-1.9-1.5c-1.6-0.7-37.7-8.8-40.1-9.1C71.4,111.8,70.2,112,69.6,112.2z M93.8,125.3c3.5,0.8,6.6,1.5,6.8,1.7c0.2,0.2-0.9,1.4-2.4,2.7l-2.7,2.4l-3.8-3.4c-5.3-4.8-5.2-4.8-4.7-4.8C87.3,123.9,90.3,124.6,93.8,125.3z"/><path fill="#000000" d="M159,116.3c-11,2.5-20.3,4.8-20.8,5.1c-1.1,1-1.7,2.9-1.4,4.3c0.2,0.8,3,3.6,7.3,7.2c10.4,9,10.1,8.7,12.1,8.7c1.9,0,1.4,0.5,14.7-11.7c4.8-4.3,9.4-8.5,10.3-9.3c1.8-1.5,3.2-3.7,3.2-5.1c0-1.4-2.7-3.9-4.2-3.9C179.5,111.8,170,113.8,159,116.3z M163.7,125c-0.5,0.6-2.5,2.4-4.3,4.1L156,132l-2.8-2.4c-1.5-1.3-2.7-2.4-2.6-2.5c0.2-0.3,12.4-3.1,13.4-3.1C164.5,123.9,164.4,124.3,163.7,125z"/><path fill="#000000" d="M104.8,188.1c-7.5,1.4-13.8,2.6-13.9,2.7c-0.2,0.2,0.9,7.9,1.1,8.1c0.1,0.1,6.2-1,13.6-2.4c18.6-3.4,22.1-3.4,40.4-0.1c9,1.7,13.3,2.3,13.5,1.9c0.4-0.7,1.6-7.5,1.4-7.7c-0.1-0.1-6.1-1.3-13.4-2.6c-11.9-2.2-14-2.5-21.1-2.6C118.9,185.5,117.8,185.7,104.8,188.1z"/><path fill="#000000" d="M115.2,211.4v4.1l1.5,0.1c0.9,0.1,4.4,0.1,7.9,0.1c3.5,0,7.6,0,9.2-0.1l2.8-0.1v-4.1v-4.1h-10.7h-10.7V211.4z"/></g></g></g>
</svg>